<?xml version="1.0" standalone="no"?>
<!DOCTYPE svg PUBLIC "-//W3C//DTD SVG 20010904//EN"
 "http://www.w3.org/TR/2001/REC-SVG-20010904/DTD/svg10.dtd">
<svg version="1.0" xmlns="http://www.w3.org/2000/svg"
 width="2000.000000pt" height="1125.000000pt" viewBox="0 0 2000.000000 1125.000000"
 preserveAspectRatio="xMidYMid meet">

<g transform="translate(0.000000,1125.000000) scale(0.100000,-0.100000)"
fill="#000000" stroke="none">
<path d="M0 10815 l0 -435 10000 0 10000 0 0 435 0 435 -10000 0 -10000 0 0
-435z m8849 13 c19 -49 37 -88 41 -88 3 0 22 39 42 88 31 75 39 87 59 87 24 0
24 -1 27 -117 2 -99 0 -118 -12 -118 -12 0 -16 19 -18 101 l-3 102 -40 -99
c-25 -61 -46 -100 -56 -102 -12 -2 -26 22 -55 100 l-39 103 -3 -103 c-2 -82
-6 -102 -17 -102 -12 0 -15 20 -15 113 0 63 3 117 7 121 4 4 16 6 27 4 15 -2
29 -25 55 -90z m339 80 c22 -22 13 -28 -31 -22 -36 5 -45 3 -51 -11 -8 -22 8
-41 55 -65 54 -28 65 -69 29 -108 -32 -34 -130 -27 -130 9 0 4 24 6 53 5 49
-1 52 0 55 26 2 19 -2 28 -17 33 -71 22 -105 97 -59 129 27 19 79 21 96 4z
m277 -3 c38 -19 55 -51 55 -105 0 -82 -41 -120 -130 -120 l-50 0 0 113 c0 63
3 117 7 120 12 13 85 7 118 -8z m244 -101 c23 -63 41 -117 41 -120 0 -2 -7 -4
-16 -4 -8 0 -20 14 -25 30 -10 28 -14 30 -60 30 -47 0 -51 -2 -60 -30 -6 -16
-17 -30 -25 -30 -22 0 -24 -7 61 228 2 6 13 12 24 12 15 0 27 -22 60 -116z
m179 104 c22 -22 13 -28 -31 -22 -36 5 -45 3 -51 -11 -8 -22 8 -41 55 -65 54
-28 65 -69 29 -108 -32 -34 -130 -27 -130 9 0 4 24 6 53 5 49 -1 52 0 55 26 2
19 -2 28 -17 33 -71 22 -105 97 -59 129 27 19 79 21 96 4z m102 -38 l0 -50 55
0 55 0 0 50 c0 38 4 50 15 50 13 0 15 -20 15 -120 0 -100 -2 -120 -15 -120
-12 0 -15 13 -15 55 l0 55 -55 0 -55 0 0 -55 c0 -42 -3 -55 -15 -55 -12 0 -15
20 -15 120 0 100 3 120 15 120 11 0 15 -12 15 -50z m325 30 c16 -14 20 -57 6
-79 -6 -9 -2 -20 10 -32 26 -26 24 -55 -6 -84 -20 -21 -34 -25 -80 -25 l-55 0
0 113 c0 63 3 117 8 121 11 12 99 1 117 -14z m224 6 c47 -25 64 -95 40 -164
-14 -41 -49 -62 -103 -62 -37 0 -48 5 -70 31 -46 54 -32 164 25 195 32 17 73
17 108 0z m240 -102 c23 -63 41 -117 41 -120 0 -2 -7 -4 -16 -4 -8 0 -20 14
-25 30 -10 28 -14 30 -60 30 -47 0 -51 -2 -60 -30 -6 -16 -17 -30 -25 -30 -22
0 -24 -7 61 228 2 6 13 12 24 12 15 0 27 -22 60 -116z m176 106 c14 -5 30 -22
36 -37 8 -22 6 -32 -10 -54 -21 -28 -21 -28 -2 -61 29 -51 35 -78 17 -78 -9 0
-26 21 -38 48 -18 37 -29 48 -50 50 -27 3 -28 2 -28 -47 0 -39 -4 -51 -15 -51
-12 0 -15 19 -15 113 0 63 3 117 7 120 10 10 68 8 98 -3z m220 -5 c38 -19 55
-51 55 -105 0 -82 -41 -120 -130 -120 l-50 0 0 113 c0 63 3 117 7 120 12 13
85 7 118 -8z"/>
<path d="M9370 10800 l0 -90 39 0 c56 0 85 37 78 100 -6 53 -34 80 -83 80
l-34 0 0 -90z"/>
<path d="M9631 10841 c-7 -24 -15 -49 -18 -57 -4 -10 4 -14 32 -14 35 0 37 1
31 26 -4 15 -13 40 -19 57 l-13 30 -13 -42z"/>
<path d="M10220 10855 c0 -33 2 -35 34 -35 26 0 36 5 41 20 9 28 -11 50 -46
50 -26 0 -29 -3 -29 -35z"/>
<path d="M10220 10749 l0 -40 43 3 c35 3 43 7 45 26 5 33 -15 52 -54 52 -33 0
-34 -1 -34 -41z"/>
<path d="M10437 10873 c-33 -37 -29 -133 6 -155 23 -15 74 -8 91 11 23 26 25
102 2 135 -20 31 -74 36 -99 9z"/>
<path d="M10701 10841 c-7 -24 -15 -49 -18 -57 -4 -10 4 -14 32 -14 35 0 37 1
31 26 -4 15 -13 40 -19 57 l-13 30 -13 -42z"/>
<path d="M10880 10850 c0 -34 3 -40 21 -40 31 0 59 18 59 38 0 26 -20 42 -52
42 -26 0 -28 -3 -28 -40z"/>
<path d="M11080 10800 l0 -90 39 0 c56 0 85 37 78 100 -6 53 -34 80 -83 80
l-34 0 0 -90z"/>
<path d="M3330 10115 c0 -13 748 -15 6670 -15 5922 0 6670 2 6670 15 0 13
-748 15 -6670 15 -5922 0 -6670 -2 -6670 -15z"/>
<path d="M3403 9880 c0 -25 2 -35 4 -22 2 12 2 32 0 45 -2 12 -4 2 -4 -23z"/>
<path d="M3480 9878 c0 -26 4 -38 8 -30 8 12 4 72 -4 72 -2 0 -4 -19 -4 -42z"/>
<path d="M3525 9910 c3 -5 11 -10 16 -10 6 0 7 5 4 10 -3 6 -11 10 -16 10 -6
0 -7 -4 -4 -10z"/>
<path d="M3600 9910 c0 -5 5 -10 10 -10 6 0 10 5 10 10 0 6 -4 10 -10 10 -5 0
-10 -4 -10 -10z"/>
<path d="M3630 9915 c0 -2 9 -9 20 -15 16 -9 18 -8 14 5 -5 13 -34 22 -34 10z"/>
<path d="M3569 9905 c-5 -20 -3 -65 4 -65 4 0 7 16 7 35 0 29 -7 48 -11 30z"/>
<path d="M3527 9879 c-14 -8 -16 -14 -6 -25 17 -20 24 -17 24 11 0 14 0 25 0
25 0 0 -8 -5 -18 -11z"/>
<path d="M3688 9885 c-10 -10 10 -45 25 -45 9 0 9 2 1 8 -7 4 -13 15 -15 25
-2 11 -7 16 -11 12z"/>
<path d="M3645 9850 c-16 -7 -17 -9 -3 -9 9 -1 20 4 23 9 7 11 7 11 -20 0z"/>
<path d="M4132 9798 c-2 -33 -17 -36 -32 -8 -17 32 -30 23 -30 -20 0 -22 5
-40 10 -40 6 0 10 9 10 21 0 21 0 21 19 -2 25 -31 33 -21 28 32 -2 24 -4 32
-5 17z"/>
<path d="M4497 9814 c-4 -4 -7 -16 -7 -26 0 -10 -4 -18 -10 -18 -5 0 -10 -9
-10 -20 0 -29 17 -25 28 8 9 23 11 24 11 6 1 -12 8 -25 17 -28 12 -5 15 -2 10
10 -3 8 -6 21 -6 28 0 18 -24 48 -33 40z"/>
<path d="M6310 9772 l0 -47 15 29 c19 36 19 52 0 60 -12 4 -15 -4 -15 -42z"/>
<path d="M6776 9813 c-3 -4 -6 -25 -5 -47 1 -34 2 -37 8 -16 l7 25 8 -22 c7
-22 26 -32 26 -15 0 16 -38 81 -44 75z"/>
<path d="M7282 9808 c-18 -18 -15 -27 13 -38 34 -13 33 -34 -1 -26 -17 5 -23
3 -19 -4 7 -11 48 -14 58 -4 10 10 -12 44 -28 44 -8 0 -15 7 -15 15 0 13 4 14
21 4 17 -9 20 -8 17 3 -6 18 -31 21 -46 6z"/>
<path d="M8320 9810 c0 -13 23 -25 43 -22 23 4 22 -10 -3 -26 -28 -17 -25 -32
8 -31 15 0 22 3 16 5 -9 4 -9 13 -1 34 6 16 9 31 7 33 -11 10 -70 16 -70 7z"/>
<path d="M4600 9801 c0 -5 -9 -11 -21 -14 -29 -8 -22 -51 9 -55 20 -3 22 1 22
37 0 23 -2 41 -5 41 -3 0 -5 -4 -5 -9z m0 -41 c0 -11 -7 -20 -15 -20 -8 0 -15
9 -15 20 0 11 7 20 15 20 8 0 15 -9 15 -20z"/>
<path d="M4713 9770 c0 -25 2 -35 4 -22 2 12 2 32 0 45 -2 12 -4 2 -4 -23z"/>
<path d="M4748 9800 c-9 -27 4 -70 21 -70 13 0 13 2 2 9 -8 5 -12 18 -9 29 6
23 -7 53 -14 32z"/>
<path d="M5008 9770 c5 -45 22 -55 22 -12 0 15 5 33 12 40 9 9 6 12 -13 12
-23 0 -24 -3 -21 -40z"/>
<path d="M5204 9800 c-12 -12 -6 -70 7 -70 5 0 9 18 9 40 0 43 -1 45 -16 30z"/>
<path d="M5290 9768 c0 -23 3 -38 7 -35 3 4 6 20 5 37 -1 33 12 39 27 13 9
-16 10 -16 11 5 0 17 -6 22 -25 22 -23 0 -25 -4 -25 -42z"/>
<path d="M5436 9802 c-2 -4 -1 -23 4 -42 l8 -35 1 43 c1 41 -3 50 -13 34z"/>
<path d="M5658 9798 c-2 -7 -1 -26 3 -43 6 -28 7 -26 8 13 1 42 -3 53 -11 30z"/>
<path d="M5870 9796 c0 -9 7 -12 23 -9 16 3 18 2 8 -5 -9 -7 -10 -12 -2 -16
19 -12 12 -29 -9 -23 -11 3 -20 1 -20 -5 0 -5 10 -8 23 -6 18 2 23 10 25 41 3
34 1 37 -22 37 -16 0 -26 -6 -26 -14z"/>
<path d="M5940 9797 c0 -27 12 -47 29 -48 13 0 12 -2 -4 -10 l-20 -9 20 3 c16
2 20 10 20 37 0 29 -4 36 -22 38 -15 2 -23 -2 -23 -11z m40 -17 c0 -5 -7 -10
-15 -10 -8 0 -15 5 -15 10 0 6 7 10 15 10 8 0 15 -4 15 -10z"/>
<path d="M6360 9795 c0 -8 4 -15 9 -15 5 0 12 -12 14 -27 3 -20 4 -15 6 15 1
31 -3 42 -14 42 -8 0 -15 -7 -15 -15z"/>
<path d="M6483 9770 c0 -25 2 -35 4 -22 2 12 2 32 0 45 -2 12 -4 2 -4 -23z"/>
<path d="M6824 9795 c-7 -17 4 -37 17 -30 12 8 12 45 -1 45 -6 0 -13 -7 -16
-15z"/>
<path d="M6948 9803 c-2 -5 -1 -24 3 -43 l6 -35 2 43 c1 39 -3 52 -11 35z"/>
<path d="M6983 9799 c-8 -8 -8 -19 0 -40 16 -41 23 -36 19 11 -5 45 -4 44 -19
29z"/>
<path d="M7143 9770 c0 -25 2 -35 4 -22 2 12 2 32 0 45 -2 12 -4 2 -4 -23z"/>
<path d="M7433 9770 c0 -25 2 -35 4 -22 2 12 2 32 0 45 -2 12 -4 2 -4 -23z"/>
<path d="M8010 9795 c0 -8 -4 -15 -10 -15 -6 0 -5 -10 2 -25 12 -28 48 -34 48
-9 0 13 -3 14 -14 5 -18 -15 -30 1 -21 30 6 19 8 19 25 4 18 -16 18 -16 13 4
-6 24 -43 29 -43 6z"/>
<path d="M8074 9798 c-5 -8 -2 -9 9 -5 18 7 33 -8 17 -18 -5 -3 -10 -11 -10
-17 0 -7 6 -6 15 2 22 18 19 50 -4 50 -11 0 -23 -5 -27 -12z"/>
<path d="M8186 9795 c-3 -8 -1 -15 4 -15 5 0 11 -12 13 -27 3 -20 4 -15 6 15
1 41 -11 57 -23 27z"/>
<path d="M8246 9795 c-3 -8 -1 -15 4 -15 5 0 11 -12 13 -27 3 -20 4 -15 6 15
1 41 -11 57 -23 27z"/>
<path d="M8412 9773 c2 -30 7 -38 23 -38 16 0 21 8 23 38 3 34 1 37 -23 37
-24 0 -26 -3 -23 -37z m38 -8 c0 -16 -6 -25 -15 -25 -9 0 -15 9 -15 25 0 16 6
25 15 25 9 0 15 -9 15 -25z"/>
<path d="M8476 9783 c-5 -17 -2 -31 8 -41 23 -24 46 -7 46 33 0 30 -3 35 -24
35 -17 0 -26 -7 -30 -27z m44 -18 c0 -16 -6 -25 -15 -25 -9 0 -15 9 -15 25 0
16 6 25 15 25 9 0 15 -9 15 -25z"/>
<path d="M8546 9794 c-4 -10 1 -23 14 -34 20 -17 20 -19 3 -24 -11 -3 -9 -4 7
-3 22 2 25 7 25 37 0 28 -4 36 -21 38 -13 2 -24 -4 -28 -14z m39 -14 c-3 -5
-10 -10 -16 -10 -5 0 -9 5 -9 10 0 6 7 10 16 10 8 0 12 -4 9 -10z"/>
<path d="M9146 9802 c-2 -4 -1 -23 4 -42 l8 -35 1 43 c1 41 -3 50 -13 34z"/>
<path d="M9197 9803 c-13 -12 -7 -61 8 -67 28 -10 45 5 45 40 0 29 -3 34 -23
34 -13 0 -27 -3 -30 -7z m33 -38 c0 -14 -4 -25 -10 -25 -5 0 -10 11 -10 25 0
14 5 25 10 25 6 0 10 -11 10 -25z"/>
<path d="M4164 9760 c1 -18 7 -26 24 -28 19 -3 22 1 21 30 -2 30 -2 31 -6 6
-5 -34 -30 -37 -36 -5 -3 19 -4 19 -3 -3z"/>
<path d="M4235 9770 c-8 -26 1 -40 28 -39 21 0 21 1 2 9 -19 8 -19 9 4 9 17 1
22 5 17 17 -3 9 -6 18 -6 20 0 14 -40 0 -45 -16z"/>
<path d="M4310 9758 c0 -36 4 -35 14 5 4 16 2 27 -4 27 -5 0 -10 -14 -10 -32z"/>
<path d="M4354 9775 c-4 -8 -4 -22 0 -30 6 -17 42 -20 51 -5 3 6 17 10 31 10
13 0 24 5 24 11 0 7 -10 9 -24 7 -15 -3 -27 0 -30 8 -7 19 -45 18 -52 -1z m36
-15 c0 -11 -7 -20 -15 -20 -15 0 -21 21 -8 33 12 13 23 7 23 -13z"/>
<path d="M4641 9763 c-1 -29 2 -33 24 -33 21 0 25 4 24 28 -2 23 -2 24 -6 5
-6 -32 -31 -29 -36 5 -4 25 -4 25 -6 -5z"/>
<path d="M4790 9770 c0 -12 7 -20 18 -21 14 0 14 -2 -3 -9 -20 -8 -20 -9 1 -9
27 -1 32 5 26 34 -6 31 -42 35 -42 5z"/>
<path d="M4895 9760 c0 -18 5 -25 20 -25 15 0 20 7 20 25 0 18 -5 25 -20 25
-15 0 -20 -7 -20 -25z"/>
<path d="M5063 9783 c-7 -2 -13 -13 -13 -23 0 -19 20 -31 48 -29 10 1 7 4 -8
9 -25 8 -25 8 -2 9 17 1 22 6 20 18 -3 18 -24 26 -45 16z"/>
<path d="M5133 9784 c-17 -7 -4 -34 16 -35 12 0 12 -2 -4 -9 -17 -8 -16 -9 9
-9 22 -1 27 3 22 15 -3 9 -6 22 -6 30 0 14 -14 17 -37 8z"/>
<path d="M5385 9780 c16 -7 16 -9 4 -9 -14 -1 -29 -20 -29 -37 0 -2 11 -4 25
-4 21 0 25 5 25 30 0 25 -4 30 -22 29 -22 0 -22 -1 -3 -9z m12 -36 c-3 -3 -12
-4 -19 -1 -8 3 -5 6 6 6 11 1 17 -2 13 -5z"/>
<path d="M5517 9784 c-4 -4 -7 -18 -7 -31 0 -17 5 -23 23 -22 21 0 21 1 2 9
-19 8 -19 9 3 9 17 1 22 6 20 18 -3 19 -29 29 -41 17z"/>
<path d="M5581 9758 c2 -31 2 -31 6 -5 2 15 10 27 18 27 8 0 16 -12 18 -27 4
-26 4 -26 6 5 1 28 -2 32 -24 32 -22 0 -25 -4 -24 -32z"/>
<path d="M6411 9768 c-11 -30 -6 -38 25 -38 22 0 25 4 22 27 -4 36 -35 43 -47
11z m36 6 c-3 -3 -12 -4 -19 -1 -8 3 -5 6 6 6 11 1 17 -2 13 -5z m0 -30 c-3
-3 -12 -4 -19 -1 -8 3 -5 6 6 6 11 1 17 -2 13 -5z"/>
<path d="M6512 9778 c-25 -25 -6 -49 36 -47 14 0 13 2 -3 9 -18 8 -18 9 -2 9
12 1 17 7 15 18 -4 22 -29 28 -46 11z"/>
<path d="M7057 9783 c-10 -10 -8 -83 2 -83 5 0 11 7 15 15 3 8 12 15 20 15 17
0 28 24 20 45 -6 15 -45 21 -57 8z m43 -29 c0 -8 -7 -14 -15 -14 -15 0 -21 21
-9 33 10 9 24 -2 24 -19z"/>
<path d="M7170 9775 c-15 -18 2 -45 29 -44 12 0 11 2 -4 9 -19 8 -19 9 3 9 17
1 22 6 20 18 -4 23 -32 28 -48 8z"/>
<path d="M7361 9776 c-16 -19 -3 -46 23 -45 16 1 17 2 4 6 -10 2 -18 13 -18
24 0 16 4 19 21 14 15 -5 19 -4 15 4 -10 15 -31 14 -45 -3z"/>
<path d="M7463 9783 c-18 -7 -16 -40 3 -47 24 -9 42 -6 19 4 -19 8 -19 9 3 9
17 1 22 6 20 18 -3 18 -24 26 -45 16z"/>
<path d="M7527 9783 c-11 -10 -8 -53 3 -53 6 0 10 8 10 18 0 10 5 23 12 30 9
9 9 12 -3 12 -9 0 -19 -3 -22 -7z"/>
<path d="M7581 9777 c-17 -21 -3 -49 23 -45 15 2 21 10 21 28 0 28 -26 38 -44
17z m39 -17 c0 -11 -7 -20 -15 -20 -8 0 -15 9 -15 20 0 11 7 20 15 20 8 0 15
-9 15 -20z"/>
<path d="M7655 9781 c-9 -15 3 -31 23 -32 11 -1 8 -4 -8 -9 l-25 -8 27 -1 c23
-1 26 2 24 27 -3 27 -29 42 -41 23z m32 -7 c-3 -3 -12 -4 -19 -1 -8 3 -5 6 6
6 11 1 17 -2 13 -5z"/>
<path d="M7722 9760 c0 -19 2 -27 5 -17 2 9 2 25 0 35 -3 9 -5 1 -5 -18z"/>
<path d="M7760 9770 c0 -12 7 -20 18 -21 14 0 14 -2 -3 -9 -20 -8 -20 -9 1 -9
11 -1 23 2 27 5 10 10 -4 34 -22 35 -12 0 -12 2 4 9 19 8 19 9 -2 9 -17 1 -23
-5 -23 -19z"/>
<path d="M8140 9780 c0 -5 5 -10 10 -10 6 0 10 5 10 10 0 6 -4 10 -10 10 -5 0
-10 -4 -10 -10z"/>
<path d="M4862 9755 c0 -16 2 -22 5 -12 2 9 2 23 0 30 -3 6 -5 -1 -5 -18z"/>
<path d="M5472 9755 c0 -16 2 -22 5 -12 2 9 2 23 0 30 -3 6 -5 -1 -5 -18z"/>
<path d="M6878 9763 c-7 -27 -2 -33 29 -33 18 0 23 5 23 25 0 14 -4 25 -10 25
-5 0 -10 -9 -10 -20 0 -27 -18 -25 -22 3 l-3 22 -7 -22z"/>
<path d="M7032 9755 c0 -16 2 -22 5 -12 2 9 2 23 0 30 -3 6 -5 -1 -5 -18z"/>
<path d="M5230 9760 c0 -5 7 -10 15 -10 8 0 15 5 15 10 0 6 -7 10 -15 10 -8 0
-15 -4 -15 -10z"/>
<path d="M6340 9749 c0 -11 5 -17 10 -14 6 3 10 13 10 21 0 8 -4 14 -10 14 -5
0 -10 -9 -10 -21z"/>
<path d="M8301 9744 c0 -11 3 -14 6 -6 3 7 2 16 -1 19 -3 4 -6 -2 -5 -13z"/>
<path d="M8070 9738 c0 -4 16 -8 35 -8 46 0 46 15 0 16 -19 0 -35 -3 -35 -8z"/>
<path d="M10202 9468 c-2 -45 0 -48 23 -48 14 0 25 5 25 10 0 6 -9 10 -19 10
-15 0 -21 8 -24 38 -3 34 -4 33 -5 -10z"/>
<path d="M10341 9468 c-1 -44 1 -48 23 -48 13 0 27 7 30 16 10 25 -3 54 -24
54 -10 0 -21 6 -23 13 -3 6 -6 -9 -6 -35z m39 -13 c0 -18 -4 -23 -15 -19 -16
6 -20 26 -8 37 13 14 23 6 23 -18z"/>
<path d="M3603 9493 c-22 -8 -14 -33 12 -43 35 -13 33 -34 -2 -25 -21 5 -25 4
-17 -5 17 -17 58 -8 62 13 3 12 -5 19 -27 23 -50 10 -39 29 14 25 17 -2 17 0
5 8 -16 11 -28 12 -47 4z"/>
<path d="M4362 9492 c-7 -2 -12 -21 -12 -43 0 -39 0 -39 38 -38 30 2 32 3 10
6 -16 2 -28 10 -28 18 0 8 12 16 28 18 l27 4 -27 2 c-36 1 -37 21 -1 21 14 0
23 3 19 7 -8 8 -37 11 -54 5z"/>
<path d="M4442 9492 c-7 -2 -12 -21 -12 -43 0 -37 2 -39 30 -39 32 0 51 27 43
61 -5 17 -38 29 -61 21z m48 -36 c0 -32 -18 -43 -37 -23 -20 20 -10 47 17 47
15 0 20 -7 20 -24z"/>
<path d="M4537 9493 c-15 -15 -7 -43 13 -43 12 0 20 -7 20 -16 0 -11 -6 -15
-20 -11 -11 3 -20 1 -20 -5 0 -5 12 -8 27 -6 37 4 43 35 9 44 -14 3 -26 13
-26 21 0 10 7 14 20 10 11 -3 18 -1 14 4 -6 11 -28 12 -37 2z"/>
<path d="M4617 9493 c-15 -15 -7 -43 13 -43 11 0 20 -7 20 -16 0 -11 -6 -14
-20 -9 -11 4 -20 2 -20 -4 0 -6 14 -11 30 -11 38 0 41 32 4 48 -30 14 -22 36
9 27 17 -5 19 -4 7 4 -17 12 -34 14 -43 4z"/>
<path d="M3490 9450 c0 -48 15 -53 24 -9 9 45 8 49 -9 49 -11 0 -15 -11 -15
-40z"/>
<path d="M3554 9468 c3 -13 6 -31 6 -40 0 -10 5 -18 10 -18 6 0 10 18 10 40 0
30 -4 40 -16 40 -12 0 -15 -6 -10 -22z"/>
<path d="M3723 9450 c6 -22 14 -40 17 -40 8 0 30 52 29 69 0 10 -4 7 -9 -6
-12 -28 -30 -30 -30 -3 0 11 -4 20 -9 20 -4 0 -3 -18 2 -40z"/>
<path d="M4000 9450 c0 -37 2 -40 29 -40 17 0 31 6 35 16 8 22 -12 57 -30 50
-8 -3 -14 -1 -14 4 0 6 -4 10 -10 10 -5 0 -10 -18 -10 -40z m50 -10 c0 -11 -7
-20 -15 -20 -15 0 -21 21 -8 33 12 13 23 7 23 -13z"/>
<path d="M4093 9450 c0 -25 2 -35 4 -22 2 12 2 32 0 45 -2 12 -4 2 -4 -23z"/>
<path d="M4807 9483 c-12 -11 -8 -23 8 -23 8 0 15 7 15 15 0 16 -12 20 -23 8z"/>
<path d="M10278 9483 c-3 -4 -5 -20 -6 -35 -2 -24 2 -28 24 -28 23 0 25 4 22
32 -3 31 -30 51 -40 31z m32 -13 c0 -5 -7 -10 -15 -10 -8 0 -15 5 -15 10 0 6
7 10 15 10 8 0 15 -4 15 -10z m-3 -26 c-3 -3 -12 -4 -19 -1 -8 3 -5 6 6 6 11
1 17 -2 13 -5z"/>
<path d="M10420 9471 c0 -11 8 -22 18 -24 16 -4 16 -5 0 -6 -24 -1 -23 -21 1
-21 22 0 29 15 23 47 -5 29 -42 32 -42 4z"/>
<path d="M3800 9471 c0 -5 6 -12 13 -15 6 -3 3 -4 -8 -1 -16 4 -21 0 -23 -20
-1 -22 2 -25 28 -25 25 0 30 4 30 23 0 23 -17 47 -32 47 -4 0 -8 -4 -8 -9z
m15 -41 c3 -5 1 -10 -4 -10 -6 0 -11 5 -11 10 0 6 2 10 4 10 3 0 8 -4 11 -10z"/>
<path d="M3946 9464 c-13 -35 -7 -54 19 -54 18 0 25 5 25 19 0 29 -11 51 -25
51 -7 0 -16 -7 -19 -16z m31 -10 c-3 -3 -12 -4 -19 -1 -8 3 -5 6 6 6 11 1 17
-2 13 -5z m3 -30 c0 -2 -7 -4 -15 -4 -8 0 -15 4 -15 10 0 5 7 7 15 4 8 -4 15
-8 15 -10z"/>
<path d="M4130 9471 c0 -5 6 -11 13 -14 6 -2 4 -3 -5 -2 -10 2 -21 -1 -24 -6
-8 -14 15 -39 35 -38 13 1 13 2 -1 6 -10 2 -18 9 -18 15 0 6 9 8 20 5 21 -5
24 1 14 27 -7 17 -34 22 -34 7z"/>
<path d="M4191 9466 c-10 -11 -7 -17 9 -29 20 -14 21 -16 3 -20 -12 -4 -9 -5
7 -4 26 2 35 30 17 55 -12 16 -22 15 -36 -2z m36 -12 c-3 -3 -12 -4 -19 -1 -8
3 -5 6 6 6 11 1 17 -2 13 -5z"/>
<path d="M3850 9440 c0 -16 5 -30 10 -30 6 0 10 8 10 18 0 10 5 23 12 30 9 9
7 12 -10 12 -18 0 -22 -6 -22 -30z"/>
<path d="M3912 9440 c0 -19 2 -27 5 -17 2 9 2 25 0 35 -3 9 -5 1 -5 -18z"/>
<path d="M3520 9429 c0 -24 23 -21 28 4 2 10 -3 17 -12 17 -10 0 -16 -9 -16
-21z"/>
<path d="M4805 9431 c-7 -12 12 -24 25 -16 11 7 4 25 -10 25 -5 0 -11 -4 -15
-9z"/>
<path d="M13193 9304 c-15 -16 -16 -24 -4 -24 8 0 24 30 19 35 -2 2 -9 -3 -15
-11z"/>
<path d="M14678 9303 c7 -3 16 -2 19 1 4 3 -2 6 -13 5 -11 0 -14 -3 -6 -6z"/>
<path d="M15878 9303 c7 -3 16 -2 19 1 4 3 -2 6 -13 5 -11 0 -14 -3 -6 -6z"/>
<path d="M13220 9280 c0 -5 5 -10 11 -10 5 0 7 5 4 10 -3 6 -8 10 -11 10 -2 0
-4 -4 -4 -10z"/>
<path d="M14702 9265 c0 -16 2 -22 5 -12 2 9 2 23 0 30 -3 6 -5 -1 -5 -18z"/>
<path d="M15861 9274 c0 -11 3 -14 6 -6 3 7 2 16 -1 19 -3 4 -6 -2 -5 -13z"/>
<path d="M14411 9254 c0 -11 3 -14 6 -6 3 7 2 16 -1 19 -3 4 -6 -2 -5 -13z"/>
<path d="M3950 9149 c0 -5 5 -7 10 -4 6 3 10 8 10 11 0 2 -4 4 -10 4 -5 0 -10
-5 -10 -11z"/>
<path d="M4098 9153 c6 -2 18 -2 25 0 6 3 1 5 -13 5 -14 0 -19 -2 -12 -5z"/>
<path d="M4290 9144 c0 -17 23 -44 38 -44 11 0 22 24 22 46 0 9 -11 14 -30 14
-21 0 -30 -5 -30 -16z"/>
<path d="M4131 9124 c0 -11 3 -14 6 -6 3 7 2 16 -1 19 -3 4 -6 -2 -5 -13z"/>
<path d="M3718 9123 c-21 -5 -24 -23 -4 -23 8 0 16 7 20 15 3 8 4 14 3 14 -1
-1 -10 -3 -19 -6z"/>
<path d="M3837 9123 c-4 -3 -7 -13 -7 -22 1 -13 3 -13 11 2 11 19 8 33 -4 20z"/>
<path d="M3898 9123 c7 -3 16 -2 19 1 4 3 -2 6 -13 5 -11 0 -14 -3 -6 -6z"/>
<path d="M4033 9123 c11 -3 16 -11 13 -19 -3 -8 -1 -14 4 -14 6 0 10 9 10 20
0 14 -6 20 -22 19 -19 -1 -19 -2 -5 -6z"/>
<path d="M10420 9100 c0 -5 5 -10 11 -10 5 0 7 5 4 10 -3 6 -8 10 -11 10 -2 0
-4 -4 -4 -10z"/>
<path d="M4098 9093 c6 -2 18 -2 25 0 6 3 1 5 -13 5 -14 0 -19 -2 -12 -5z"/>
<path d="M13246 9083 c-4 -9 -3 -20 1 -24 4 -4 9 3 9 17 2 28 -1 31 -10 7z"/>
<path d="M15593 9085 c-7 -8 -13 -16 -13 -19 0 -2 6 -6 13 -9 7 -3 13 5 13 19
1 13 1 24 0 24 0 -1 -7 -7 -13 -15z"/>
<path d="M16080 9090 c0 -5 -6 -10 -14 -10 -14 0 -30 -29 -21 -38 3 -3 5 0 5
7 0 8 8 11 18 9 12 -4 17 2 18 19 1 12 0 23 -2 23 -2 0 -4 -4 -4 -10z"/>
<path d="M10680 9070 c0 -5 5 -10 10 -10 6 0 10 5 10 10 0 6 -4 10 -10 10 -5
0 -10 -4 -10 -10z"/>
<path d="M14685 9070 c-3 -5 -1 -10 4 -10 6 0 11 5 11 10 0 6 -2 10 -4 10 -3
0 -8 -4 -11 -10z"/>
<path d="M14710 9070 c0 -5 5 -10 11 -10 5 0 7 5 4 10 -3 6 -8 10 -11 10 -2 0
-4 -4 -4 -10z"/>
<path d="M10410 9056 c0 -2 11 -6 25 -8 13 -3 22 -1 19 3 -5 9 -44 13 -44 5z"/>
<path d="M10912 9034 c-7 -8 -8 -14 -3 -14 10 0 25 19 20 25 -2 1 -10 -3 -17
-11z"/>
<path d="M11190 9036 c0 -9 5 -16 10 -16 6 0 10 4 10 9 0 6 -4 13 -10 16 -5 3
-10 -1 -10 -9z"/>
<path d="M10615 9030 c-3 -5 -1 -10 4 -10 6 0 11 5 11 10 0 6 -2 10 -4 10 -3
0 -8 -4 -11 -10z"/>
<path d="M10685 9030 c-3 -5 -1 -10 4 -10 6 0 11 5 11 10 0 6 -2 10 -4 10 -3
0 -8 -4 -11 -10z"/>
<path d="M4343 9002 c-11 -15 -23 -37 -27 -50 -4 -12 -12 -22 -17 -22 -5 0 -9
-7 -9 -15 0 -12 15 -15 75 -15 67 0 74 2 67 18 -8 19 -63 112 -66 112 -1 0
-11 -12 -23 -28z"/>
<path d="M3998 8983 c7 -3 16 -2 19 1 4 3 -2 6 -13 5 -11 0 -14 -3 -6 -6z"/>
<path d="M4108 8983 c7 -3 16 -2 19 1 4 3 -2 6 -13 5 -11 0 -14 -3 -6 -6z"/>
<path d="M4210 8986 c0 -2 9 -6 20 -9 11 -3 18 -1 14 4 -5 9 -34 13 -34 5z"/>
<path d="M3730 8962 c0 -6 -8 -13 -17 -15 -16 -4 -16 -5 -1 -6 18 -1 34 16 24
26 -3 4 -6 1 -6 -5z"/>
<path d="M4090 8951 c0 -10 19 -25 25 -20 1 2 -3 10 -11 17 -8 7 -14 8 -14 3z"/>
<path d="M4462 8838 c-7 -7 -12 -21 -12 -32 0 -38 14 -47 66 -44 48 3 49 3 52
39 3 31 -1 37 -20 43 -37 9 -73 7 -86 -6z"/>
<path d="M10318 8833 c7 -3 16 -2 19 1 4 3 -2 6 -13 5 -11 0 -14 -3 -6 -6z"/>
<path d="M10665 8830 c27 -12 43 -12 25 0 -8 5 -22 9 -30 9 -10 0 -8 -3 5 -9z"/>
<path d="M13246 8815 c-3 -8 -1 -15 5 -15 6 0 8 -9 4 -19 -6 -20 9 -38 19 -22
8 12 -4 71 -14 71 -4 0 -10 -7 -14 -15z"/>
<path d="M13330 8816 c0 -26 12 -46 29 -47 9 -1 6 -4 -9 -9 -15 -5 -18 -8 -8
-9 45 -3 64 34 34 65 -19 18 -46 18 -46 0z m40 -17 c0 -5 -4 -9 -10 -9 -5 0
-10 7 -10 16 0 8 5 12 10 9 6 -3 10 -10 10 -16z"/>
<path d="M14640 8820 c0 -5 5 -10 10 -10 6 0 10 5 10 10 0 6 -4 10 -10 10 -5
0 -10 -4 -10 -10z"/>
<path d="M3718 8793 c-21 -5 -24 -23 -4 -23 8 0 16 7 20 15 3 8 4 14 3 14 -1
-1 -10 -3 -19 -6z"/>
<path d="M16045 8789 c-4 -6 -4 -13 -1 -16 3 -4 6 -1 6 5 0 6 8 13 18 15 15 4
15 5 0 6 -9 0 -20 -4 -23 -10z"/>
<path d="M10383 8776 c1 -11 9 -21 17 -23 10 -3 11 -2 4 4 -6 4 -14 15 -17 23
-5 11 -6 9 -4 -4z"/>
<path d="M10451 8774 c0 -11 3 -14 6 -6 3 7 2 16 -1 19 -3 4 -6 -2 -5 -13z"/>
<path d="M13220 8780 c0 -5 5 -10 10 -10 6 0 10 5 10 10 0 6 -4 10 -10 10 -5
0 -10 -4 -10 -10z"/>
<path d="M13298 8753 c7 -3 16 -2 19 1 4 3 -2 6 -13 5 -11 0 -14 -3 -6 -6z"/>
<path d="M3810 8671 c0 -5 7 -12 16 -15 14 -5 15 -4 4 9 -14 17 -20 19 -20 6z"/>
<path d="M4460 8666 c0 -8 -4 -16 -8 -18 -4 -1 -3 -13 4 -26 10 -21 11 -20 11
18 0 22 -1 40 -3 40 -2 0 -4 -6 -4 -14z"/>
<path d="M3970 8649 c0 -5 5 -7 10 -4 6 3 10 8 10 11 0 2 -4 4 -10 4 -5 0 -10
-5 -10 -11z"/>
<path d="M4010 8650 c-8 -5 -9 -9 -1 -14 6 -4 11 -2 11 3 0 6 7 11 15 11 8 0
15 -6 15 -12 0 -9 3 -10 8 -2 4 6 14 13 22 16 8 3 -1 6 -21 6 -20 0 -42 -3
-49 -8z"/>
<path d="M4138 8653 c7 -3 16 -2 19 1 4 3 -2 6 -13 5 -11 0 -14 -3 -6 -6z"/>
<path d="M4318 8653 c6 -2 18 -2 25 0 6 3 1 5 -13 5 -14 0 -19 -2 -12 -5z"/>
<path d="M4513 8654 c20 -6 23 -24 5 -24 -9 0 -10 -3 -2 -8 6 -4 14 -14 17
-22 4 -8 5 1 4 20 -1 27 -7 35 -22 37 -16 1 -16 1 -2 -3z"/>
<path d="M4561 8643 c0 -10 3 -13 6 -5 6 15 29 16 36 2 3 -6 4 -5 3 2 -1 7
-12 14 -24 16 -16 3 -22 -2 -21 -15z"/>
<path d="M4635 8649 c-4 -6 -4 -13 -1 -16 3 -4 6 -1 6 6 0 8 8 11 20 8 11 -3
20 -1 20 4 0 13 -37 11 -45 -2z"/>
<path d="M4718 8653 c6 -2 18 -2 25 0 6 3 1 5 -13 5 -14 0 -19 -2 -12 -5z"/>
<path d="M3730 8632 c0 -6 -8 -13 -17 -15 -16 -4 -16 -5 -1 -6 18 -1 34 16 24
26 -3 4 -6 1 -6 -5z"/>
<path d="M4138 8623 c7 -3 16 -2 19 1 4 3 -2 6 -13 5 -11 0 -14 -3 -6 -6z"/>
<path d="M3856 8613 c5 -5 12 -12 16 -18 4 -6 8 -2 8 8 0 9 -7 17 -17 17 -9 0
-12 -3 -7 -7z"/>
<path d="M4250 8610 c0 -5 5 -10 10 -10 6 0 10 5 10 10 0 6 -4 10 -10 10 -5 0
-10 -4 -10 -10z"/>
<path d="M4636 8607 c3 -10 9 -15 12 -12 3 3 0 11 -7 18 -10 9 -11 8 -5 -6z"/>
<path d="M4155 8600 c3 -5 8 -10 11 -10 2 0 4 5 4 10 0 6 -5 10 -11 10 -5 0
-7 -4 -4 -10z"/>
<path d="M4660 8600 c0 -5 5 -10 10 -10 6 0 10 5 10 10 0 6 -4 10 -10 10 -5 0
-10 -4 -10 -10z"/>
<path d="M10648 8553 c7 -3 16 -2 19 1 4 3 -2 6 -13 5 -11 0 -14 -3 -6 -6z"/>
<path d="M10485 8540 c-3 -5 -1 -10 4 -10 6 0 11 5 11 10 0 6 -2 10 -4 10 -3
0 -8 -4 -11 -10z"/>
<path d="M11148 8543 c7 -3 16 -2 19 1 4 3 -2 6 -13 5 -11 0 -14 -3 -6 -6z"/>
<path d="M13290 8529 c-6 -11 -9 -25 -6 -32 2 -7 5 -4 5 6 1 9 5 17 10 17 5 0
7 -8 4 -19 -5 -20 12 -38 21 -22 8 12 -4 71 -15 71 -5 0 -13 -9 -19 -21z"/>
<path d="M16080 8536 c0 -7 -9 -16 -20 -19 -11 -3 -20 -11 -20 -19 0 -10 2
-10 9 1 5 8 15 12 23 9 9 -4 14 2 16 18 1 13 0 24 -3 24 -3 0 -5 -6 -5 -14z"/>
<path d="M10522 8515 c0 -16 2 -22 5 -12 2 9 2 23 0 30 -3 6 -5 -1 -5 -18z"/>
<path d="M10273 8513 c9 -2 25 -2 35 0 9 3 1 5 -18 5 -19 0 -27 -2 -17 -5z"/>
<path d="M10353 8513 c9 -2 23 -2 30 0 6 3 -1 5 -18 5 -16 0 -22 -2 -12 -5z"/>
<path d="M10908 8513 c12 -2 22 -10 22 -18 0 -8 -10 -16 -22 -18 -20 -3 -20
-4 2 -3 18 1 25 7 25 21 0 14 -7 20 -25 21 -22 1 -22 0 -2 -3z"/>
<path d="M11165 8510 c-3 -5 -1 -10 4 -10 6 0 11 5 11 10 0 6 -2 10 -4 10 -3
0 -8 -4 -11 -10z"/>
<path d="M14710 8501 c0 -19 35 -39 47 -27 4 3 -1 6 -10 6 -10 0 -17 8 -17 20
0 11 -4 20 -10 20 -5 0 -10 -9 -10 -19z"/>
<path d="M10615 8500 c3 -5 8 -10 11 -10 2 0 4 5 4 10 0 6 -5 10 -11 10 -5 0
-7 -4 -4 -10z"/>
<path d="M10451 8484 c0 -11 3 -14 6 -6 3 7 2 16 -1 19 -3 4 -6 -2 -5 -13z"/>
<path d="M10680 8491 c0 -5 -12 -12 -27 -14 -22 -4 -20 -4 6 -3 19 0 36 7 39
14 2 6 -1 12 -7 12 -6 0 -11 -4 -11 -9z"/>
<path d="M11050 8491 c0 -5 5 -13 10 -16 6 -3 10 -2 10 4 0 5 -4 13 -10 16 -5
3 -10 2 -10 -4z"/>
<path d="M11330 8492 c0 -7 -10 -13 -22 -13 -19 -1 -20 -2 -4 -6 20 -5 44 12
33 24 -4 3 -7 1 -7 -5z"/>
<path d="M15830 8480 c0 -5 5 -10 11 -10 5 0 7 5 4 10 -3 6 -8 10 -11 10 -2 0
-4 -4 -4 -10z"/>
<path d="M10353 8473 c9 -2 23 -2 30 0 6 3 -1 5 -18 5 -16 0 -22 -2 -12 -5z"/>
<path d="M10543 8473 c9 -2 25 -2 35 0 9 3 1 5 -18 5 -19 0 -27 -2 -17 -5z"/>
<path d="M10723 8473 c9 -2 23 -2 30 0 6 3 -1 5 -18 5 -16 0 -22 -2 -12 -5z"/>
<path d="M10813 8473 c9 -2 23 -2 30 0 6 3 -1 5 -18 5 -16 0 -22 -2 -12 -5z"/>
<path d="M15508 8473 c7 -3 16 -2 19 1 4 3 -2 6 -13 5 -11 0 -14 -3 -6 -6z"/>
<path d="M15918 8473 c7 -3 16 -2 19 1 4 3 -2 6 -13 5 -11 0 -14 -3 -6 -6z"/>
<path d="M16058 8473 c7 -3 16 -2 19 1 4 3 -2 6 -13 5 -11 0 -14 -3 -6 -6z"/>
<path d="M3766 8284 c-19 -19 -19 -24 -2 -46 16 -22 39 -23 56 -3 11 13 59 15
325 15 266 0 314 -2 325 -15 7 -8 18 -15 25 -15 7 0 18 7 25 15 11 13 83 15
535 15 456 0 524 -2 529 -15 3 -8 12 -15 19 -15 8 0 20 7 27 15 17 20 84 20
101 -1 8 -9 21 -13 35 -10 20 5 70 -9 84 -24 3 -3 32 -18 64 -35 69 -35 106
-63 106 -82 0 -15 38 -17 59 -4 9 6 12 18 8 32 -7 27 47 109 73 109 38 0 57
63 21 73 -31 8 -51 -11 -51 -48 0 -18 -4 -35 -8 -37 -4 -1 -18 -17 -30 -34
-32 -46 -65 -49 -142 -11 -36 18 -67 35 -70 38 -3 3 -19 11 -37 18 -18 7 -41
28 -52 47 -23 39 -40 42 -66 14 -17 -19 -75 -29 -75 -12 0 4 -10 13 -21 21
-19 11 -25 10 -50 -8 -28 -21 -37 -21 -533 -21 -423 0 -506 2 -513 14 -14 24
-73 25 -73 1 0 -13 -41 -15 -306 -15 -291 0 -307 1 -331 20 -31 24 -37 25 -57
4z"/>
<path d="M13206 8251 c-9 -17 -12 -31 -7 -31 5 0 12 8 14 18 3 10 5 6 6 -11 1
-18 6 -27 14 -24 13 4 11 56 -3 71 -5 4 -16 -6 -24 -23z"/>
<path d="M13273 8273 c-18 -7 -16 -58 2 -73 30 -25 62 39 33 68 -13 13 -16 13
-35 5z m27 -38 c0 -26 -14 -33 -25 -15 -9 14 1 40 15 40 5 0 10 -11 10 -25z"/>
<path d="M13382 8264 c-11 -12 -10 -14 3 -14 12 0 15 -6 10 -19 -3 -11 -1 -22
5 -26 6 -4 10 7 10 29 0 40 -9 50 -28 30z"/>
<path d="M10445 8240 c3 -5 8 -10 11 -10 2 0 4 5 4 10 0 6 -5 10 -11 10 -5 0
-7 -4 -4 -10z"/>
<path d="M14758 8243 c6 -2 18 -2 25 0 6 3 1 5 -13 5 -14 0 -19 -2 -12 -5z"/>
<path d="M16058 8243 c7 -3 16 -2 19 1 4 3 -2 6 -13 5 -11 0 -14 -3 -6 -6z"/>
<path d="M10295 8230 c-3 -5 -1 -10 4 -10 6 0 11 5 11 10 0 6 -2 10 -4 10 -3
0 -8 -4 -11 -10z"/>
<path d="M10610 8210 c0 -5 5 -10 10 -10 6 0 10 5 10 10 0 6 -4 10 -10 10 -5
0 -10 -4 -10 -10z"/>
<path d="M10925 8209 c-4 -6 -5 -12 -2 -15 2 -3 7 2 10 11 7 17 1 20 -8 4z"/>
<path d="M11068 8003 c7 -3 16 -2 19 1 4 3 -2 6 -13 5 -11 0 -14 -3 -6 -6z"/>
<path d="M11150 8006 c0 -2 9 -6 20 -9 11 -3 18 -1 14 4 -5 9 -34 13 -34 5z"/>
<path d="M11608 8003 c7 -3 16 -2 19 1 4 3 -2 6 -13 5 -11 0 -14 -3 -6 -6z"/>
<path d="M13250 7990 c0 -5 7 -7 15 -4 9 4 15 0 15 -10 0 -9 -4 -16 -10 -16
-5 0 -14 -9 -20 -20 -10 -18 -8 -20 22 -19 22 0 27 3 16 7 -13 5 -15 11 -8 22
17 26 12 50 -10 50 -11 0 -20 -4 -20 -10z"/>
<path d="M13321 7974 c-6 -15 -10 -28 -9 -29 2 -1 13 -8 26 -14 21 -11 22 -10
22 29 0 47 -20 54 -39 14z m29 -8 c0 -3 -4 -8 -10 -11 -5 -3 -10 -1 -10 4 0 6
5 11 10 11 6 0 10 -2 10 -4z"/>
<path d="M16080 7986 c0 -7 -9 -16 -20 -19 -11 -3 -20 -11 -19 -19 0 -10 2
-10 6 0 2 6 11 12 18 12 7 0 15 -6 18 -12 2 -7 4 2 5 20 0 17 -1 32 -4 32 -2
0 -4 -6 -4 -14z"/>
<path d="M10410 7966 c0 -2 9 -6 20 -9 11 -3 18 -1 14 4 -5 9 -34 13 -34 5z"/>
<path d="M10778 7963 c6 -2 18 -2 25 0 6 3 1 5 -13 5 -14 0 -19 -2 -12 -5z"/>
<path d="M10963 7963 c9 -2 25 -2 35 0 9 3 1 5 -18 5 -19 0 -27 -2 -17 -5z"/>
<path d="M11308 7963 c12 -2 30 -2 40 0 9 3 -1 5 -23 4 -22 0 -30 -2 -17 -4z"/>
<path d="M11510 7960 c0 -5 5 -10 11 -10 5 0 7 5 4 10 -3 6 -8 10 -11 10 -2 0
-4 -4 -4 -10z"/>
<path d="M11673 7963 c9 -2 23 -2 30 0 6 3 -1 5 -18 5 -16 0 -22 -2 -12 -5z"/>
<path d="M10295 7950 c3 -5 8 -10 11 -10 2 0 4 5 4 10 0 6 -5 10 -11 10 -5 0
-7 -4 -4 -10z"/>
<path d="M10490 7949 c0 -5 5 -7 10 -4 6 3 10 8 10 11 0 2 -4 4 -10 4 -5 0
-10 -5 -10 -11z"/>
<path d="M11422 7946 c7 -8 15 -12 17 -11 5 6 -10 25 -20 25 -5 0 -4 -6 3 -14z"/>
<path d="M11545 7950 c4 -6 11 -8 16 -5 14 9 11 15 -7 15 -8 0 -12 -5 -9 -10z"/>
<path d="M11090 7930 c-9 -6 -10 -10 -3 -10 6 0 15 5 18 10 8 12 4 12 -15 0z"/>
<path d="M11587 7929 c7 -7 15 -10 18 -7 3 3 -2 9 -12 12 -14 6 -15 5 -6 -5z"/>
<path d="M15830 7930 c0 -5 5 -10 11 -10 5 0 7 5 4 10 -3 6 -8 10 -11 10 -2 0
-4 -4 -4 -10z"/>
<path d="M16058 7923 c7 -3 16 -2 19 1 4 3 -2 6 -13 5 -11 0 -14 -3 -6 -6z"/>
<path d="M11240 7721 c0 -6 4 -13 10 -16 6 -3 7 1 4 9 -7 18 -14 21 -14 7z"/>
<path d="M13293 7723 c-21 -7 -15 -44 7 -50 11 -3 17 -10 14 -15 -3 -5 -13 -7
-21 -4 -8 3 -11 1 -8 -4 9 -15 32 -12 39 6 17 43 1 78 -31 67z m27 -28 c0 -8
-7 -15 -15 -15 -8 0 -15 7 -15 15 0 8 7 15 15 15 8 0 15 -7 15 -15z"/>
<path d="M10610 7716 c0 -2 7 -7 16 -10 8 -3 12 -2 9 4 -6 10 -25 14 -25 6z"/>
<path d="M10926 7705 c-9 -26 -7 -32 5 -12 6 10 9 21 6 23 -2 3 -7 -2 -11 -11z"/>
<path d="M11048 7713 c7 -3 16 -2 19 1 4 3 -2 6 -13 5 -11 0 -14 -3 -6 -6z"/>
<path d="M16080 7710 c0 -5 -6 -10 -14 -10 -8 0 -16 -6 -19 -12 -3 -8 4 -13
17 -13 15 0 21 7 22 23 1 12 0 22 -2 22 -2 0 -4 -4 -4 -10z"/>
<path d="M15730 7690 c0 -5 5 -10 10 -10 6 0 10 5 10 10 0 6 -4 10 -10 10 -5
0 -10 -4 -10 -10z"/>
<path d="M10445 7680 c-3 -5 -1 -10 4 -10 6 0 11 5 11 10 0 6 -2 10 -4 10 -3
0 -8 -4 -11 -10z"/>
<path d="M10965 7670 c-3 -6 1 -7 9 -4 18 7 21 14 7 14 -6 0 -13 -4 -16 -10z"/>
<path d="M11216 7671 c-3 -4 6 -6 19 -3 14 2 25 6 25 8 0 8 -39 4 -44 -5z"/>
<path d="M11327 7659 c4 -13 8 -18 11 -10 2 7 -1 18 -6 23 -8 8 -9 4 -5 -13z"/>
<path d="M11477 7664 c6 -15 23 -19 23 -5 0 5 -7 11 -14 14 -10 4 -13 1 -9 -9z"/>
<path d="M10546 7657 c3 -10 9 -15 12 -12 3 3 0 11 -7 18 -10 9 -11 8 -5 -6z"/>
<path d="M10666 7657 c3 -10 9 -15 12 -12 3 3 0 11 -7 18 -10 9 -11 8 -5 -6z"/>
<path d="M11101 7654 c0 -11 3 -14 6 -6 3 7 2 16 -1 19 -3 4 -6 -2 -5 -13z"/>
<path d="M10360 7453 c8 -3 19 -11 23 -17 6 -7 7 -6 4 4 -2 8 -12 16 -23 17
-13 2 -15 1 -4 -4z"/>
<path d="M10428 7453 c7 -3 16 -2 19 1 4 3 -2 6 -13 5 -11 0 -14 -3 -6 -6z"/>
<path d="M10568 7453 c6 -2 18 -2 25 0 6 3 1 5 -13 5 -14 0 -19 -2 -12 -5z"/>
<path d="M10653 7453 c9 -2 23 -2 30 0 6 3 -1 5 -18 5 -16 0 -22 -2 -12 -5z"/>
<path d="M10783 7453 c9 -2 23 -2 30 0 6 3 -1 5 -18 5 -16 0 -22 -2 -12 -5z"/>
<path d="M10858 7453 c6 -2 18 -2 25 0 6 3 1 5 -13 5 -14 0 -19 -2 -12 -5z"/>
<path d="M10963 7453 c9 -2 23 -2 30 0 6 3 -1 5 -18 5 -16 0 -22 -2 -12 -5z"/>
<path d="M11038 7453 c7 -3 16 -2 19 1 4 3 -2 6 -13 5 -11 0 -14 -3 -6 -6z"/>
<path d="M11300 7453 c8 -3 19 -11 23 -17 6 -7 7 -6 4 4 -2 8 -12 16 -23 17
-13 2 -15 1 -4 -4z"/>
<path d="M11770 7453 c8 -3 19 -11 23 -17 6 -7 7 -6 4 4 -2 8 -12 16 -23 17
-13 2 -15 1 -4 -4z"/>
<path d="M11838 7453 c6 -2 18 -2 25 0 6 3 1 5 -13 5 -14 0 -19 -2 -12 -5z"/>
<path d="M10270 7440 c0 -5 5 -10 10 -10 6 0 10 5 10 10 0 6 -4 10 -10 10 -5
0 -10 -4 -10 -10z"/>
<path d="M10500 7440 c0 -5 5 -10 10 -10 6 0 10 5 10 10 0 6 -4 10 -10 10 -5
0 -10 -4 -10 -10z"/>
<path d="M10720 7440 c0 -5 5 -10 10 -10 6 0 10 5 10 10 0 6 -4 10 -10 10 -5
0 -10 -4 -10 -10z"/>
<path d="M11070 7438 c0 -9 -6 -19 -12 -21 -10 -4 -10 -6 0 -6 14 -1 28 26 18
36 -3 4 -6 -1 -6 -9z"/>
<path d="M11120 7446 c0 -2 7 -9 15 -16 13 -11 14 -10 9 4 -5 14 -24 23 -24
12z"/>
<path d="M11180 7440 c0 -5 5 -10 10 -10 6 0 10 5 10 10 0 6 -4 10 -10 10 -5
0 -10 -4 -10 -10z"/>
<path d="M11370 7441 c0 -5 7 -11 14 -14 10 -4 13 -1 9 9 -6 15 -23 19 -23 5z"/>
<path d="M11430 7440 c0 -5 5 -10 11 -10 5 0 7 5 4 10 -3 6 -8 10 -11 10 -2 0
-4 -4 -4 -10z"/>
<path d="M11570 7440 c0 -5 5 -10 10 -10 6 0 10 5 10 10 0 6 -4 10 -10 10 -5
0 -10 -4 -10 -10z"/>
<path d="M11680 7440 c0 -5 5 -10 10 -10 6 0 10 5 10 10 0 6 -4 10 -10 10 -5
0 -10 -4 -10 -10z"/>
<path d="M13258 7438 c-6 -18 3 -68 13 -68 5 0 9 18 9 40 0 37 -13 55 -22 28z"/>
<path d="M13320 7440 c0 -5 8 -10 18 -10 14 0 15 -2 2 -10 -10 -6 -11 -10 -2
-10 6 0 12 -7 12 -16 0 -11 -6 -14 -21 -9 -15 5 -19 4 -15 -4 4 -6 16 -11 27
-11 16 0 19 7 19 40 0 33 -3 40 -20 40 -11 0 -20 -4 -20 -10z"/>
<path d="M14640 7440 c0 -5 5 -10 10 -10 6 0 10 5 10 10 0 6 -4 10 -10 10 -5
0 -10 -4 -10 -10z"/>
<path d="M10610 7425 c-11 -13 -10 -14 4 -9 9 3 16 10 16 15 0 13 -6 11 -20
-6z"/>
<path d="M16080 7431 c0 -5 -9 -11 -20 -14 -11 -3 -20 -11 -19 -19 0 -10 2
-10 6 0 2 6 11 12 18 12 7 0 15 -6 18 -12 2 -7 4 -1 4 15 0 15 -1 27 -3 27 -2
0 -4 -4 -4 -9z"/>
<path d="M10521 7404 c0 -11 3 -14 6 -6 3 7 2 16 -1 19 -3 4 -6 -2 -5 -13z"/>
<path d="M10741 7404 c0 -11 3 -14 6 -6 3 7 2 16 -1 19 -3 4 -6 -2 -5 -13z"/>
<path d="M10853 7413 c9 -2 23 -2 30 0 6 3 -1 5 -18 5 -16 0 -22 -2 -12 -5z"/>
<path d="M11833 7413 c9 -2 23 -2 30 0 6 3 -1 5 -18 5 -16 0 -22 -2 -12 -5z"/>
<path d="M10295 7400 c3 -5 8 -10 11 -10 2 0 4 5 4 10 0 6 -5 10 -11 10 -5 0
-7 -4 -4 -10z"/>
<path d="M11106 7394 c-5 -14 -4 -15 9 -4 17 14 19 20 6 20 -5 0 -12 -7 -15
-16z"/>
<path d="M11140 7401 c0 -6 4 -13 10 -16 6 -3 7 1 4 9 -7 18 -14 21 -14 7z"/>
<path d="M11356 7393 c-6 -14 -5 -15 5 -6 7 7 10 15 7 18 -3 3 -9 -2 -12 -12z"/>
<path d="M11390 7401 c0 -6 4 -13 10 -16 6 -3 7 1 4 9 -7 18 -14 21 -14 7z"/>
<path d="M11660 7400 c0 -5 5 -10 10 -10 6 0 10 5 10 10 0 6 -4 10 -10 10 -5
0 -10 -4 -10 -10z"/>
<path d="M11700 7400 c0 -5 5 -10 10 -10 6 0 10 5 10 10 0 6 -4 10 -10 10 -5
0 -10 -4 -10 -10z"/>
<path d="M11071 7384 c0 -11 3 -14 6 -6 3 7 2 16 -1 19 -3 4 -6 -2 -5 -13z"/>
<path d="M11235 7380 c3 -5 8 -10 11 -10 2 0 4 5 4 10 0 6 -5 10 -11 10 -5 0
-7 -4 -4 -10z"/>
<path d="M15497 7379 c7 -7 15 -10 18 -7 3 3 -2 9 -12 12 -14 6 -15 5 -6 -5z"/>
<path d="M15830 7380 c0 -5 5 -10 11 -10 5 0 7 5 4 10 -3 6 -8 10 -11 10 -2 0
-4 -4 -4 -10z"/>
<path d="M13259 7165 c-8 -8 3 -75 12 -75 5 0 9 18 9 40 0 36 -8 49 -21 35z"/>
<path d="M13320 7160 c0 -5 7 -7 15 -4 9 4 15 0 15 -10 0 -9 -4 -16 -10 -16
-5 0 -14 -9 -20 -20 -10 -18 -8 -20 22 -19 18 1 25 3 16 6 -20 5 -23 18 -8 28
19 12 11 45 -10 45 -11 0 -20 -4 -20 -10z"/>
<path d="M10920 7133 c19 -9 10 -32 -15 -36 -23 -4 -23 -4 2 -3 21 1 28 6 28
20 0 11 -6 20 -13 22 -7 1 -8 0 -2 -3z"/>
<path d="M14350 7136 c0 -2 7 -7 16 -10 8 -3 12 -2 9 4 -6 10 -25 14 -25 6z"/>
<path d="M15580 7136 c0 -2 7 -7 16 -10 8 -3 12 -2 9 4 -6 10 -25 14 -25 6z"/>
<path d="M16046 7131 c-4 -5 3 -7 14 -4 23 6 26 13 6 13 -8 0 -17 -4 -20 -9z"/>
<path d="M10451 7104 c0 -11 3 -14 6 -6 3 7 2 16 -1 19 -3 4 -6 -2 -5 -13z"/>
<path d="M10680 7110 c0 -5 5 -10 10 -10 6 0 10 5 10 10 0 6 -4 10 -10 10 -5
0 -10 -4 -10 -10z"/>
<path d="M11055 7100 c3 -5 8 -10 11 -10 2 0 4 5 4 10 0 6 -5 10 -11 10 -5 0
-7 -4 -4 -10z"/>
<path d="M15830 7100 c0 -5 5 -10 11 -10 5 0 7 5 4 10 -3 6 -8 10 -11 10 -2 0
-4 -4 -4 -10z"/>
<path d="M10353 7093 c9 -2 23 -2 30 0 6 3 -1 5 -18 5 -16 0 -22 -2 -12 -5z"/>
<path d="M10728 7093 c6 -2 18 -2 25 0 6 3 1 5 -13 5 -14 0 -19 -2 -12 -5z"/>
<path d="M16058 7093 c7 -3 16 -2 19 1 4 3 -2 6 -13 5 -11 0 -14 -3 -6 -6z"/>
<path d="M10770 6891 c0 -6 4 -13 10 -16 6 -3 7 1 4 9 -7 18 -14 21 -14 7z"/>
<path d="M13233 6893 c-18 -7 -16 -51 2 -70 23 -22 47 1 43 41 -3 30 -19 40
-45 29z m27 -38 c0 -14 -4 -25 -10 -25 -5 0 -10 11 -10 25 0 14 5 25 10 25 6
0 10 -11 10 -25z"/>
<path d="M13342 6885 c-11 -12 -10 -15 2 -15 8 0 16 -12 19 -27 3 -20 4 -15 6
15 1 44 -5 51 -27 27z"/>
<path d="M10692 6875 c-7 -8 -8 -15 -3 -15 5 0 11 -8 14 -17 2 -10 4 -3 4 15
0 17 0 32 -1 32 -1 -1 -7 -7 -14 -15z"/>
<path d="M16080 6883 c0 -6 -9 -13 -20 -16 -12 -3 -20 -13 -19 -24 1 -16 2
-16 6 0 2 9 11 17 18 17 16 0 30 18 21 27 -3 4 -6 2 -6 -4z"/>
<path d="M10280 6866 c0 -2 7 -6 15 -10 8 -3 15 -1 15 4 0 6 -7 10 -15 10 -8
0 -15 -2 -15 -4z"/>
<path d="M10515 6860 c3 -5 8 -10 11 -10 2 0 4 5 4 10 0 6 -5 10 -11 10 -5 0
-7 -4 -4 -10z"/>
<path d="M14740 6866 c0 -2 7 -9 15 -16 13 -11 14 -10 9 4 -5 14 -24 23 -24
12z"/>
<path d="M10990 6846 c0 -8 4 -17 9 -20 5 -4 7 3 4 14 -6 23 -13 26 -13 6z"/>
<path d="M11061 6844 c0 -11 3 -14 6 -6 3 7 2 16 -1 19 -3 4 -6 -2 -5 -13z"/>
<path d="M11150 6850 c0 -5 5 -10 10 -10 6 0 10 5 10 10 0 6 -4 10 -10 10 -5
0 -10 -4 -10 -10z"/>
<path d="M11188 6843 c7 -3 16 -2 19 1 4 3 -2 6 -13 5 -11 0 -14 -3 -6 -6z"/>
<path d="M10605 6829 c-11 -16 -1 -19 13 -3 7 8 8 14 3 14 -5 0 -13 -5 -16
-11z"/>
<path d="M10815 6830 c3 -5 8 -10 11 -10 2 0 4 5 4 10 0 6 -5 10 -11 10 -5 0
-7 -4 -4 -10z"/>
<path d="M13295 6820 c3 -5 8 -10 11 -10 2 0 4 5 4 10 0 6 -5 10 -11 10 -5 0
-7 -4 -4 -10z"/>
<path d="M7831 6644 c0 -11 3 -14 6 -6 3 7 2 16 -1 19 -3 4 -6 -2 -5 -13z"/>
<path d="M8121 6644 c0 -11 3 -14 6 -6 3 7 2 16 -1 19 -3 4 -6 -2 -5 -13z"/>
<path d="M8591 6644 c0 -11 3 -14 6 -6 3 7 2 16 -1 19 -3 4 -6 -2 -5 -13z"/>
<path d="M7871 6604 c0 -11 3 -14 6 -6 3 7 2 16 -1 19 -3 4 -6 -2 -5 -13z"/>
<path d="M8631 6604 c0 -11 3 -14 6 -6 3 7 2 16 -1 19 -3 4 -6 -2 -5 -13z"/>
<path d="M5250 6233 c0 -6 12 -23 27 -37 27 -27 27 -28 7 -44 -11 -9 -26 -26
-34 -36 -14 -18 -14 -18 5 -8 11 5 32 23 46 39 l26 28 -39 34 c-21 18 -38 29
-38 24z"/>
<path d="M4743 6205 c2 -14 9 -19 25 -17 27 4 29 -14 2 -28 -29 -15 -25 -40 5
-40 25 0 35 15 14 22 -8 3 -6 9 4 20 13 13 14 18 3 33 -8 11 -20 16 -29 12 -9
-3 -18 -1 -21 6 -3 7 -4 3 -3 -8z"/>
<path d="M3501 6168 c1 -24 4 -34 6 -24 5 18 6 18 24 -5 l19 -24 0 23 c0 12
-4 22 -9 22 -5 0 -12 11 -15 25 -10 40 -26 29 -25 -17z"/>
<path d="M3554 6195 c-3 -8 -3 -19 1 -25 11 -18 25 -11 25 15 0 27 -17 34 -26
10z"/>
<path d="M3600 6171 c0 -22 5 -43 10 -46 6 -4 10 10 10 35 0 34 3 41 16 36 9
-3 19 -6 22 -6 4 0 1 -4 -6 -8 -10 -7 -9 -14 3 -38 l16 -29 -3 45 c-3 43 -5
45 -35 48 -32 3 -33 2 -33 -37z"/>
<path d="M3693 6165 c0 -27 2 -38 4 -22 2 15 2 37 0 50 -2 12 -4 0 -4 -28z"/>
<path d="M3833 6173 c-6 -21 -10 -39 -8 -41 8 -9 25 11 25 29 0 10 5 19 11 19
6 0 8 -7 5 -16 -3 -8 1 -22 9 -30 18 -18 18 -12 4 39 -13 47 -31 47 -46 0z"/>
<path d="M3917 6203 c-4 -3 -7 -22 -6 -42 0 -27 2 -31 8 -17 7 18 8 18 24 -5
14 -19 17 -20 17 -6 0 17 -26 77 -34 77 -1 0 -6 -3 -9 -7z"/>
<path d="M3967 6195 c-4 -8 0 -27 8 -42 l15 -28 0 43 c0 41 -12 56 -23 27z"/>
<path d="M4022 6185 c0 -16 3 -39 7 -50 7 -18 10 -17 25 13 10 18 15 41 13 50
-4 14 -6 13 -12 -5 -4 -13 -11 -23 -15 -23 -5 0 -11 10 -13 23 -3 17 -4 15 -5
-8z"/>
<path d="M4100 6196 c0 -9 -7 -19 -15 -22 -19 -8 -20 -44 -1 -44 13 0 31 68
21 79 -3 2 -5 -3 -5 -13z"/>
<path d="M4166 6195 c-4 -11 2 -15 21 -15 21 0 24 2 13 15 -7 8 -16 15 -20 15
-4 0 -10 -7 -14 -15z"/>
<path d="M4580 6189 c-9 -16 -9 -28 -1 -45 12 -28 36 -32 45 -8 4 11 2 15 -7
11 -21 -8 -41 9 -34 28 5 11 13 14 28 10 15 -5 20 -3 17 6 -8 23 -36 22 -48
-2z"/>
<path d="M4660 6195 c-8 -9 -8 -15 -2 -15 6 0 13 -12 15 -27 3 -20 4 -15 6 15
1 46 -1 49 -19 27z"/>
<path d="M4827 6204 c-9 -9 -9 -47 -1 -68 6 -17 34 -22 34 -7 0 5 8 8 17 7 10
0 19 8 21 19 2 11 9 23 16 27 8 5 8 10 -1 19 -9 9 -13 3 -18 -25 -9 -45 -23
-47 -27 -4 -3 31 -25 48 -41 32z m33 -39 c0 -16 -6 -25 -15 -25 -9 0 -15 9
-15 25 0 16 6 25 15 25 9 0 15 -9 15 -25z"/>
<path d="M4930 6195 c0 -9 6 -12 15 -9 8 4 15 2 15 -4 0 -5 -7 -15 -15 -22
-21 -18 -19 -40 5 -40 11 0 20 5 20 10 0 6 -5 10 -12 10 -9 0 -9 3 0 12 20 20
15 58 -8 58 -11 0 -20 -7 -20 -15z"/>
<path d="M5000 6195 c0 -8 -4 -15 -9 -15 -5 0 -4 -13 2 -30 21 -56 66 -20 50
41 -6 22 -43 26 -43 4z m37 -21 c1 -5 -2 -16 -7 -24 -12 -20 -35 2 -26 25 6
17 27 16 33 -1z"/>
<path d="M5078 6198 c-2 -7 -2 -26 2 -43 l6 -30 7 34 c7 34 -6 66 -15 39z"/>
<path d="M5139 6208 c-19 -62 14 -119 40 -70 11 20 4 36 -19 45 -12 4 -11 6 3
6 21 1 13 21 -9 21 -8 0 -14 -1 -15 -2z m28 -64 c-9 -9 -28 6 -21 18 4 6 10 6
17 -1 6 -6 8 -13 4 -17z"/>
<path d="M4721 6174 c0 -11 3 -14 6 -6 3 7 2 16 -1 19 -3 4 -6 -2 -5 -13z"/>
<path d="M4166 6135 c4 -8 12 -15 20 -15 8 0 14 7 14 15 0 8 -9 15 -20 15 -13
0 -18 -5 -14 -15z"/>
<path d="M16340 5926 l0 -67 33 3 c32 3 32 4 35 61 2 41 -1 57 -10 57 -7 0
-23 3 -35 6 -22 6 -23 4 -23 -60z"/>
<path d="M16593 5973 l-41 -4 -4 -47 c-3 -26 -3 -49 -2 -53 2 -3 24 -3 51 0
43 5 48 9 48 31 0 23 -3 25 -42 22 -38 -2 -43 0 -43 19 0 18 5 20 43 17 23 -2
43 1 45 7 4 12 -1 12 -55 8z"/>
<path d="M4207 5964 c-15 -15 -7 -44 12 -44 10 0 22 -7 25 -16 5 -13 1 -15
-20 -11 -17 3 -22 1 -15 -6 13 -13 61 0 61 17 0 8 -13 17 -30 21 -29 6 -37 15
-23 28 3 4 13 1 21 -6 13 -10 14 -9 10 3 -5 17 -30 25 -41 14z"/>
<path d="M3487 5953 c-4 -3 -7 -21 -7 -39 l0 -33 23 22 c22 22 22 22 2 28 -18
5 -16 7 10 16 30 11 30 11 4 12 -14 1 -29 -2 -32 -6z"/>
<path d="M3593 5920 c0 -25 2 -35 4 -22 2 12 2 32 0 45 -2 12 -4 2 -4 -23z"/>
<path d="M3810 5948 c0 -23 21 -68 32 -68 4 0 8 9 8 20 0 11 5 20 10 20 6 0
10 9 10 20 0 11 -4 20 -10 20 -5 0 -10 -9 -10 -20 0 -11 -7 -20 -16 -20 -8 0
-13 4 -10 8 2 4 1 14 -5 22 -7 13 -9 12 -9 -2z"/>
<path d="M4350 5920 c0 -32 4 -40 18 -39 10 0 12 3 5 6 -15 5 -17 40 -4 45 5
2 3 9 -5 16 -12 11 -14 7 -14 -28z"/>
<path d="M4390 5921 c0 -32 4 -41 17 -41 13 0 14 3 5 12 -7 7 -8 17 -2 28 7
13 5 22 -5 30 -13 11 -15 6 -15 -29z"/>
<path d="M4808 5954 c-11 -11 -10 -62 2 -69 6 -3 10 3 10 14 0 12 7 21 15 21
8 0 15 -9 15 -20 0 -11 5 -20 10 -20 6 0 10 18 10 40 0 22 -4 40 -10 40 -5 0
-10 -7 -10 -15 0 -20 -28 -19 -32 1 -2 9 -6 12 -10 8z"/>
<path d="M4963 5920 c0 -25 2 -35 4 -22 2 12 2 32 0 45 -2 12 -4 2 -4 -23z"/>
<path d="M3625 5921 c-8 -27 1 -41 28 -40 21 0 21 1 2 9 -19 8 -19 9 3 9 17 1
23 6 20 19 -5 25 -45 28 -53 3z"/>
<path d="M3927 5933 c-4 -3 -7 -17 -7 -30 0 -17 5 -23 23 -22 21 0 21 1 2 9
-18 8 -17 9 8 9 30 1 38 25 11 35 -20 8 -29 8 -37 -1z"/>
<path d="M4020 5925 c0 -14 -3 -15 -15 -5 -13 10 -15 9 -15 -8 0 -24 22 -42
28 -23 3 9 7 9 18 0 17 -14 19 -12 28 26 4 21 4 25 -3 16 -8 -12 -12 -12 -25
-2 -14 11 -16 11 -16 -4z"/>
<path d="M4287 5934 c-4 -4 -7 -18 -7 -31 0 -17 5 -23 23 -22 21 0 21 1 2 9
-19 8 -19 9 3 9 17 1 22 6 20 18 -3 19 -29 29 -41 17z m30 -10 c-3 -3 -12 -4
-19 -1 -8 3 -5 6 6 6 11 1 17 -2 13 -5z"/>
<path d="M4432 5910 c0 -19 2 -27 5 -17 2 9 2 25 0 35 -3 9 -5 1 -5 -18z"/>
<path d="M4473 5933 c-7 -2 -13 -17 -12 -31 0 -25 1 -26 9 -6 14 35 29 37 42
7 9 -23 12 -24 15 -10 8 32 -21 54 -54 40z"/>
<path d="M4543 5924 c-7 -19 10 -50 26 -46 6 1 11 -2 11 -8 0 -5 -7 -10 -17
-10 -9 0 -14 -3 -10 -6 3 -3 15 -3 26 1 17 5 21 15 21 46 0 35 -3 39 -25 39
-15 0 -28 -7 -32 -16z m37 -14 c0 -11 -4 -20 -10 -20 -5 0 -10 9 -10 20 0 11
5 20 10 20 6 0 10 -9 10 -20z"/>
<path d="M4623 5934 c-17 -7 -4 -34 16 -35 12 0 12 -2 -4 -9 -17 -8 -16 -9 9
-9 22 -1 27 3 22 15 -3 9 -6 22 -6 30 0 14 -14 17 -37 8z"/>
<path d="M4897 5934 c-4 -4 -7 -18 -7 -31 0 -17 5 -23 23 -22 21 0 21 1 2 9
-19 8 -19 9 3 9 17 1 22 6 20 18 -3 19 -29 29 -41 17z"/>
<path d="M4997 5934 c-4 -4 -7 -22 -7 -40 l0 -32 31 15 c22 11 29 21 27 37 -3
21 -37 34 -51 20z m39 -15 c10 -17 -13 -36 -27 -22 -12 12 -4 33 11 33 5 0 12
-5 16 -11z"/>
<path d="M3560 5904 c0 -14 4 -23 10 -19 6 3 10 15 10 26 0 10 -4 19 -10 19
-5 0 -10 -12 -10 -26z"/>
<path d="M3882 5905 c0 -16 2 -22 5 -12 2 9 2 23 0 30 -3 6 -5 -1 -5 -18z"/>
<path d="M14303 5832 l-2023 -2 0 -2205 0 -2205 2195 0 2195 0 0 2209 0 2209
-172 -1 c-95 -1 -1083 -3 -2195 -5z m1348 -1589 c23 -14 28 -23 27 -52 -1 -36
-13 -61 -29 -61 -11 0 -69 90 -69 107 0 6 8 14 18 16 9 3 19 5 20 6 2 0 17 -7
33 -16z m237 -302 c7 -14 12 -37 12 -52 0 -14 7 -32 15 -39 9 -7 15 -29 15
-54 0 -33 4 -43 23 -51 14 -7 23 -20 25 -40 2 -16 10 -33 17 -37 7 -4 15 -37
19 -77 4 -41 13 -74 22 -81 8 -8 14 -31 14 -61 0 -26 4 -50 10 -54 12 -8 -7
-55 -33 -77 -14 -13 -17 -25 -13 -43 9 -36 -25 -95 -55 -95 -8 0 -9 11 -3 43
4 23 8 85 8 137 0 85 -4 102 -32 164 -18 38 -32 72 -32 76 0 5 -15 41 -34 82
-34 72 -102 236 -113 271 -5 16 1 18 59 15 58 -2 66 -5 76 -27z m-893 -164
c68 -40 89 -59 110 -102 6 -11 23 -21 38 -23 19 -2 32 -13 44 -35 9 -18 26
-45 39 -62 12 -16 26 -42 29 -58 4 -15 11 -30 16 -33 12 -7 11 -24 -1 -24 -5
0 -41 32 -81 70 -39 39 -77 70 -84 70 -7 0 -27 30 -45 66 -34 68 -53 85 -73
65 -6 -6 -16 -11 -23 -11 -22 0 -124 92 -124 112 0 18 5 19 43 13 23 -4 74
-26 112 -48z m-170 -7 c18 0 25 -5 25 -19 0 -10 9 -38 20 -62 12 -27 20 -66
20 -101 0 -44 5 -61 20 -76 20 -19 20 -19 -6 -33 -24 -13 -28 -12 -50 14 -20
23 -24 39 -24 93 0 72 -13 104 -59 148 -17 17 -31 38 -31 48 0 17 2 17 30 3
16 -8 40 -15 55 -15z m-1170 -312 c-9 -30 -9 -28 -1 -71 5 -20 12 -40 17 -43
5 -3 9 -19 9 -36 0 -29 -2 -30 -31 -24 -60 12 -72 66 -28 128 11 15 19 30 18
35 -3 19 2 33 12 33 6 0 8 -9 4 -22z m1775 -153 c0 -8 -4 -15 -9 -15 -13 0
-22 16 -14 24 11 11 23 6 23 -9z m81 -51 c12 -14 11 -16 -5 -13 -11 2 -21 10
-24 17 -5 17 13 15 29 -4z m121 -51 c22 -21 25 -28 15 -44 -7 -11 -19 -19 -28
-19 -23 0 -89 62 -89 84 0 25 67 11 102 -21z m-1049 -35 c21 -28 21 -28 1 -43
-29 -22 -48 -18 -66 13 -16 27 -16 30 0 46 22 22 40 17 65 -16z m167 -154 c0
-8 -5 -12 -10 -9 -6 4 -8 11 -5 16 9 14 15 11 15 -7z m-35 -96 c20 -18 42 -47
49 -63 18 -43 29 -121 21 -155 -6 -26 -11 -30 -40 -30 -36 0 -66 25 -152 128
-33 39 -43 58 -43 86 0 31 3 36 24 36 13 0 26 7 30 15 10 28 70 18 111 -17z
m265 -548 c23 -14 5 -23 -32 -15 -29 7 -30 9 -13 16 27 10 28 10 45 -1z m-70
-25 c0 -16 -35 -21 -44 -6 -8 12 4 21 26 21 10 0 18 -7 18 -15z m-85 -14 c8
-14 -10 -22 -30 -15 -13 5 -14 8 -3 15 17 11 26 11 33 0z"/>
<path d="M3420 3300 l0 -2530 895 0 894 0 3 113 3 112 38 3 c48 4 54 -10 38
-95 -6 -35 -9 -80 -5 -99 l6 -34 860 0 861 0 -7 58 c-7 55 -61 192 -77 192 -4
0 -11 9 -14 20 -3 11 -13 20 -20 20 -8 0 -17 15 -21 35 -3 19 -10 32 -15 29
-15 -9 -11 205 4 221 28 32 36 44 61 91 39 74 34 147 -12 159 -18 4 -22 9 -13
14 10 6 8 10 -6 15 -16 7 -16 9 7 26 13 10 28 16 32 14 4 -3 8 11 8 30 0 44
17 89 30 81 6 -3 13 1 16 9 3 9 12 16 20 16 8 0 14 10 14 25 0 14 -4 25 -9 25
-5 0 -14 14 -20 30 -8 26 -15 30 -45 30 -31 0 -36 3 -36 24 0 34 10 56 25 56
7 0 12 8 11 17 -2 10 -9 18 -17 18 -13 0 -15 6 -10 36 0 5 5 8 10 5 11 -7 22
48 14 70 -7 19 17 95 28 88 5 -3 9 0 9 5 0 6 15 11 34 11 24 0 38 6 48 23 20
30 37 103 31 128 -4 15 5 30 31 55 26 24 36 42 36 64 0 16 -4 30 -10 30 -16 0
-12 33 9 75 18 38 19 38 31 16 7 -15 9 -37 5 -60 -15 -76 -11 -125 13 -158 12
-17 22 -44 22 -60 0 -37 19 -103 29 -103 10 0 41 -89 41 -116 0 -35 24 -81 51
-100 22 -15 29 -27 29 -53 0 -37 19 -110 32 -125 13 -16 9 -73 -7 -86 -10 -8
-12 -17 -6 -29 5 -9 9 -18 8 -21 -1 -15 28 -88 44 -109 22 -27 24 -70 7 -118
-10 -28 -10 -42 2 -76 20 -56 12 -98 -27 -142 -18 -20 -33 -41 -33 -45 0 -19
-61 -52 -85 -46 -22 6 -25 3 -25 -18 0 -29 -19 -76 -32 -76 -17 0 -51 -90 -45
-120 4 -16 3 -30 -1 -32 -12 -5 -72 -91 -72 -103 0 -6 -9 -18 -20 -28 -11 -9
-20 -21 -20 -27 0 -7 850 -10 2580 -10 l2580 0 0 2530 0 2530 -4420 0 -4420 0
0 -2530z m5508 1284 c7 -2 22 -24 33 -48 11 -25 24 -48 29 -51 19 -12 10 -35
-12 -35 -30 1 -189 81 -202 101 -20 35 -2 45 70 41 38 -2 75 -5 82 -8z m-448
-698 c0 -14 -4 -28 -10 -31 -6 -4 -10 7 -10 24 0 17 5 31 10 31 6 0 10 -11 10
-24z m1168 -82 c27 -27 53 -44 67 -44 13 0 30 -9 37 -19 8 -11 27 -21 43 -23
26 -3 30 -8 33 -35 2 -20 11 -37 23 -44 31 -16 23 -85 -14 -113 l-28 -20 -32
34 c-18 19 -45 54 -60 78 -16 25 -50 65 -78 91 -80 75 -114 163 -57 146 13 -4
43 -27 66 -51z m-1208 -49 c0 -9 7 -18 15 -21 15 -6 40 -78 31 -92 -3 -5 3
-15 12 -24 9 -8 24 -25 32 -37 8 -13 25 -36 36 -52 24 -32 22 -62 -5 -93 -12
-13 -15 -35 -14 -78 2 -52 0 -61 -17 -65 -11 -3 -18 -9 -15 -13 2 -4 -7 -12
-20 -18 -14 -7 -25 -16 -25 -22 0 -22 -30 -9 -45 20 -16 30 -22 191 -7 189 36
-6 64 4 74 26 9 20 8 28 -5 43 -10 10 -17 24 -17 30 0 7 -8 12 -17 13 -15 0
-15 2 2 9 17 7 15 9 -12 9 -19 1 -36 8 -41 17 -9 15 -6 131 3 162 6 17 35 15
35 -3z m369 -230 c2 -11 8 -23 15 -27 16 -11 10 -196 -8 -214 -20 -19 -33 -1
-47 65 -6 29 -20 62 -31 73 -17 17 -19 28 -13 66 9 61 11 64 48 60 23 -2 33
-9 36 -23z m-513 -440 c4 -8 10 -12 15 -9 15 9 10 -41 -7 -75 -19 -38 -35 -46
-63 -32 -27 15 -34 43 -21 91 10 35 14 40 41 40 17 0 32 -6 35 -15z m736 -4
c9 -11 21 -29 27 -40 19 -35 139 -55 179 -30 22 14 72 -4 72 -26 0 -8 9 -15
20 -15 16 0 20 7 20 35 0 26 -4 35 -17 35 -9 0 -14 3 -10 6 8 8 78 -15 100
-34 12 -11 14 -18 6 -23 -6 -3 12 -12 41 -19 49 -12 126 -9 178 6 19 6 22 3
22 -23 0 -33 -27 -60 -67 -66 -39 -5 -61 -16 -91 -43 -14 -13 -30 -24 -36 -24
-20 0 -83 -66 -94 -100 -13 -36 1 -106 19 -95 5 4 9 1 9 -4 0 -6 7 -11 15 -11
8 0 30 -9 50 -20 19 -11 35 -17 35 -14 0 4 7 1 15 -6 8 -7 15 -20 15 -30 0
-20 -47 -70 -66 -70 -7 0 -25 -5 -41 -12 -30 -12 -42 -15 -83 -20 -14 -2 -40
-14 -58 -26 -66 -48 -162 -36 -162 20 0 26 -3 28 -40 28 -22 0 -40 5 -40 11 0
5 -4 7 -10 4 -5 -3 -10 2 -10 12 0 20 -52 83 -69 83 -5 0 -15 8 -20 18 -7 11
-11 12 -11 4 0 -10 -4 -10 -16 2 -8 9 -22 16 -30 16 -8 0 -14 7 -14 15 0 8 7
15 15 15 9 0 18 7 21 15 5 12 27 15 114 15 113 0 127 6 108 43 -5 10 -8 30 -6
45 2 21 11 28 38 36 38 11 50 22 50 49 0 15 -10 17 -70 17 -52 0 -72 4 -76 14
-3 8 -23 17 -45 21 -33 6 -39 10 -39 32 0 14 -9 36 -20 50 -27 35 -26 86 3
106 30 21 49 21 69 -2z m-251 -450 c12 -11 31 -21 41 -21 11 0 18 -7 18 -19 0
-10 7 -21 15 -25 8 -3 15 -16 15 -30 0 -32 10 -57 20 -51 4 3 14 -10 21 -27
10 -24 10 -33 1 -36 -7 -2 -10 -8 -6 -13 3 -5 -11 -9 -30 -9 -33 0 -35 -2 -50
-54 -9 -30 -16 -59 -16 -65 0 -5 -9 -19 -20 -29 -23 -22 -18 -52 10 -52 10 0
30 6 44 14 28 14 66 11 66 -5 0 -5 6 -9 13 -9 8 0 22 -9 32 -20 17 -19 17 -21
0 -60 -10 -22 -22 -40 -27 -40 -4 0 -8 -22 -8 -50 0 -40 3 -50 17 -50 9 0 13
-3 10 -7 -7 -6 23 -27 56 -39 35 -13 17 -74 -35 -122 -20 -18 -24 -57 -8 -67
15 -9 12 -45 -5 -51 -8 -4 -12 -10 -9 -15 3 -5 -4 -9 -15 -9 -12 0 -21 5 -21
10 0 6 -9 10 -20 10 -11 0 -20 -4 -20 -10 0 -5 -4 -10 -9 -10 -6 0 -22 -11
-37 -25 -15 -14 -31 -25 -35 -25 -14 0 -46 -36 -54 -59 -5 -16 -15 -21 -40
-21 -33 0 -45 -13 -45 -50 0 -20 -30 -35 -77 -39 -11 -1 -28 -22 -43 -55 -20
-43 -31 -56 -54 -60 -45 -9 -55 -7 -76 14 l-20 20 25 50 c29 58 35 140 9 140
-8 0 -13 4 -10 9 4 5 1 11 -6 13 -21 7 -17 38 6 44 22 5 22 8 22 179 -1 95 -4
177 -8 181 -12 11 -10 68 3 81 11 11 20 81 24 173 3 94 5 104 24 129 18 24 66
37 77 20 8 -14 40 -11 54 6 7 9 17 62 22 118 5 56 18 132 29 168 10 36 19 86
19 110 l1 44 43 -91 c24 -50 54 -101 67 -113z m1405 -197 c0 -81 3 -92 24 -99
11 -3 20 -13 20 -20 0 -25 -21 -28 -43 -7 -16 17 -21 37 -24 102 -3 65 -1 81
9 78 8 -3 13 -23 14 -54z m-1112 -4 c20 -7 26 -17 26 -39 0 -33 -5 -38 -42
-45 -21 -3 -28 1 -38 24 -13 32 -5 70 15 70 8 0 25 -4 39 -10z m1238 -302 c7
-20 -6 -71 -18 -75 -14 -5 -38 52 -30 72 7 18 42 20 48 3z m36 -144 c-4 -25
-32 -24 -36 0 -4 21 18 40 31 27 5 -5 7 -17 5 -27z m-1931 -476 c-3 -7 -5 -2
-5 12 0 14 2 19 5 13 2 -7 2 -19 0 -25z"/>
<path d="M8823 2492 c-6 -4 -15 -20 -18 -35 -6 -23 -4 -27 14 -27 12 0 21 6
21 14 0 7 7 19 15 26 8 7 15 16 15 21 0 11 -31 12 -47 1z"/>
<path d="M8558 2363 c7 -3 16 -2 19 1 4 3 -2 6 -13 5 -11 0 -14 -3 -6 -6z"/>
<path d="M8881 1824 c0 -11 3 -14 6 -6 3 7 2 16 -1 19 -3 4 -6 -2 -5 -13z"/>
<path d="M8900 1826 c0 -8 5 -18 10 -21 6 -3 10 3 10 14 0 12 -4 21 -10 21 -5
0 -10 -6 -10 -14z"/>
<path d="M6998 2083 c7 -3 16 -2 19 1 4 3 -2 6 -13 5 -11 0 -14 -3 -6 -6z"/>
<path d="M6987 2033 c-10 -64 -4 -78 32 -75 30 2 71 32 71 52 0 5 -16 12 -35
16 -25 4 -35 11 -35 25 0 35 -27 20 -33 -18z"/>
<path d="M7166 2015 c-4 -10 2 -19 17 -24 28 -11 44 3 27 24 -16 19 -36 19
-44 0z"/>
<path d="M7073 1385 c-7 -8 -13 -17 -13 -21 0 -3 -7 -21 -16 -40 -14 -30 -21
-34 -56 -34 -35 0 -39 -3 -36 -22 3 -20 38 -36 38 -17 0 5 13 9 29 9 23 0 31
-6 40 -30 8 -25 15 -30 35 -27 14 1 28 6 32 10 4 4 31 7 59 7 55 0 85 19 85
55 0 21 -65 85 -86 85 -8 0 -14 5 -14 10 0 6 -7 10 -16 10 -8 0 -12 5 -9 10
10 16 -58 11 -72 -5z m-56 -111 c-3 -3 -12 -4 -19 -1 -8 3 -5 6 6 6 11 1 17
-2 13 -5z"/>
<path d="M12280 1085 l0 -315 2195 0 2195 0 0 315 0 315 -2195 0 -2195 0 0
-315z"/>
</g>
</svg>
