<?xml version="1.0" encoding="utf-8"?>
<!-- Generator: Adobe Illustrator 16.0.4, SVG Export Plug-In . SVG Version: 6.00 Build 0)  -->
<!DOCTYPE svg PUBLIC "-//W3C//DTD SVG 1.1//EN" "http://www.w3.org/Graphics/SVG/1.1/DTD/svg11.dtd">
<svg version="1.1" id="Layer_1" xmlns="http://www.w3.org/2000/svg" xmlns:xlink="http://www.w3.org/1999/xlink" x="0px" y="0px"
	 width="288px" height="174.908px" viewBox="0 0 288 174.908" enable-background="new 0 0 288 174.908" xml:space="preserve">
<g>
	<polyline fill="#FEE579" points="173.736,0 56.259,67.824 77.832,87.453 122.466,46.839 122.481,46.848 122.481,46.832 
		179.948,28.489 173.736,0 	"/>
	<polyline fill="#FB8D71" points="77.832,87.453 56.259,107.082 173.734,174.908 179.952,146.391 122.488,128.052 122.466,128.065 
		77.832,87.453 	"/>
	<polyline fill="#FEAE46" points="122.466,46.839 77.832,87.453 122.466,128.065 122.488,128.052 122.481,128.05 122.481,46.848 
		122.466,46.839 	"/>
	<polyline fill="#B0DE92" points="207.754,19.614 179.948,28.489 192.804,87.447 192.805,87.448 192.805,87.452 179.952,146.391 
		207.754,155.264 207.754,19.614 	"/>
	<path fill="#D7E256" d="M192.805,87.448l-0.001,0.004l0.001,0 M179.948,28.489l-57.467,18.343v0.016l70.324,40.6L179.948,28.489"/>
	<path fill="#D6B95D" d="M192.805,87.452l-70.317,40.601l57.464,18.339L192.805,87.452 M192.804,87.447l0.001,0.004L192.804,87.447"
		/>
	<polyline fill="#EBD044" points="122.481,46.848 122.481,128.05 122.488,128.052 192.805,87.452 192.805,87.448 192.804,87.447 
		122.481,46.848 	"/>
	<path fill="#06092D" d="M41.522,73.642c0,7.259-4.421,10.971-8.762,12.865c6.553,1.973,11.84,5.763,11.84,13.42
		c0,9.549-7.971,15.153-20.048,15.153H0V59.827h23.524C34.417,59.827,41.522,65.194,41.522,73.642z M35.206,74.51
		c0-5.528-4.34-9.08-12.234-9.08H6.159v19.024h16.339C29.999,84.454,35.206,81.061,35.206,74.51z M38.287,99.531
		c0-6.078-5.052-9.552-14.685-9.552H6.159v19.497h18.55C33.076,109.476,38.287,105.768,38.287,99.531z"/>
	<path fill="#06092D" d="M92.445,115.081L76.419,93.613H60.633v21.468h-6.237V59.827h23.761c12.156,0,19.97,6.552,19.97,16.495
		c0,9.239-6.314,14.605-15,16.183l16.974,22.575H92.445z M77.685,65.59H60.633v22.416h16.972c8.287,0,14.208-4.262,14.208-11.445
		C91.812,69.692,86.603,65.59,77.685,65.59z"/>
	<rect x="109.424" y="59.827" fill="#06092D" width="6.236" height="55.253"/>
	<path fill="#06092D" d="M148.419,115.081h-19.182V59.827h19.182c17.368,0,29.365,11.918,29.365,27.547
		C177.784,103.004,165.787,115.081,148.419,115.081z M148.419,65.59h-12.943v43.728h12.943c13.975,0,22.893-9.471,22.893-21.784
		C171.312,75.219,162.394,65.59,148.419,65.59z"/>
	<path fill="#06092D" d="M214.027,116.028c-17.366,0-28.103-12.628-28.103-28.494c0-15.237,11.131-28.654,27.708-28.654
		c9.312,0,15.076,2.684,20.604,7.34l-4.026,4.736c-4.266-3.71-9.001-6.314-16.814-6.314c-12.235,0-20.997,10.341-20.997,22.733
		c0,13.263,8.446,23.05,21.866,23.05c6.312,0,12.155-2.447,15.945-5.524V91.163h-16.814v-5.602h22.813v22.021
		C231.076,112.162,223.342,116.028,214.027,116.028z"/>
	<polygon fill="#06092D" points="287.607,65.51 253.901,65.51 253.901,84.374 284.055,84.374 284.055,90.059 253.901,90.059 
		253.901,109.399 288,109.399 288,115.081 247.664,115.081 247.664,59.827 287.607,59.827 	"/>
</g>
</svg>
